<?xml version="1.0" encoding="UTF-8"?>
<svg width="544px" height="120px" viewBox="0 0 544 120" version="1.1" xmlns="http://www.w3.org/2000/svg" xmlns:xlink="http://www.w3.org/1999/xlink">
    <title>Artboard</title>
    <g id="Artboard" stroke="none" stroke-width="1" fill="none" fill-rule="evenodd">
        <path d="M48.0097656,33 L57.7480469,22.1015625 L46.6738281,22.1015625 L39.7480469,33 L48.0097656,33 Z M44.7050781,87.703125 C48.9941406,87.703125 52.796875,86.671875 56.1132812,84.609375 C59.4296875,82.546875 61.9785156,79.6171875 63.7597656,75.8203125 C65.5410156,72.0234375 66.4316406,67.6054688 66.4316406,62.5664062 L66.4316406,62.5664062 L66.4316406,60.28125 C66.4316406,55.265625 65.5234375,50.8417969 63.7070312,47.0097656 C61.890625,43.1777344 59.3242188,40.2363281 56.0078125,38.1855469 C52.6914062,36.1347656 48.9003906,35.109375 44.6347656,35.109375 C40.3691406,35.109375 36.578125,36.1347656 33.2617188,38.1855469 C29.9453125,40.2363281 27.3789062,43.1777344 25.5625,47.0097656 C23.7460938,50.8417969 22.8378906,55.2773438 22.8378906,60.3164062 L22.8378906,60.3164062 L22.8378906,62.8476562 C22.8613281,67.7695312 23.7871094,72.1230469 25.6152344,75.9082031 C27.4433594,79.6933594 30.0214844,82.6054688 33.3496094,84.6445312 C36.6777344,86.6835938 40.4628906,87.703125 44.7050781,87.703125 Z M44.7050781,79.0546875 C41.0957031,79.0546875 38.3300781,77.6132812 36.4082031,74.7304688 C34.4863281,71.8476562 33.5253906,67.7929688 33.5253906,62.5664062 L33.5253906,62.5664062 L33.5253906,60.0703125 C33.5488281,54.75 34.5214844,50.7128906 36.4433594,47.9589844 C38.3652344,45.2050781 41.0957031,43.828125 44.6347656,43.828125 C48.1972656,43.828125 50.9394531,45.2226562 52.8613281,48.0117188 C54.7832031,50.8007812 55.7441406,54.8789062 55.7441406,60.2460938 L55.7441406,60.2460938 L55.7441406,62.7421875 C55.7207031,68.0625 54.7597656,72.1113281 52.8613281,74.8886719 C50.9628906,77.6660156 48.2441406,79.0546875 44.7050781,79.0546875 Z M84.1503906,87 L84.1503906,33 L73.9550781,33 L73.9550781,87 L84.1503906,87 Z M103.943359,87.703125 C107.880859,87.703125 111.080078,86.3320312 113.541016,83.5898438 C113.751953,84.9492188 114.091797,86.0859375 114.560547,87 L114.560547,87 L124.826172,87 L124.826172,86.4023438 C123.841797,84.5507812 123.337891,81.8203125 123.314453,78.2109375 L123.314453,78.2109375 L123.314453,61.7226562 C123.314453,57.4570312 121.9375,54.1464844 119.183594,51.7910156 C116.429688,49.4355469 112.708984,48.2578125 108.021484,48.2578125 C104.927734,48.2578125 102.138672,48.7910156 99.6542969,49.8574219 C97.1699219,50.9238281 95.2480469,52.3945312 93.8886719,54.2695312 C92.5292969,56.1445312 91.8496094,58.1835938 91.8496094,60.3867188 L91.8496094,60.3867188 L102.009766,60.3867188 C102.009766,58.9570312 102.496094,57.8320312 103.46875,57.0117188 C104.441406,56.1914062 105.783203,55.78125 107.494141,55.78125 C109.439453,55.78125 110.863281,56.3085938 111.765625,57.3632812 C112.667969,58.4179688 113.119141,59.8242188 113.119141,61.5820312 L113.119141,61.5820312 L113.119141,63.7617188 L108.443359,63.7617188 C102.794922,63.7851562 98.4765625,64.875 95.4882812,67.03125 C92.5,69.1875 91.0058594,72.28125 91.0058594,76.3125 C91.0058594,79.59375 92.2304688,82.3125 94.6796875,84.46875 C97.1289062,86.625 100.216797,87.703125 103.943359,87.703125 Z M106.158203,79.9335938 C104.611328,79.9335938 103.392578,79.5234375 102.501953,78.703125 C101.611328,77.8828125 101.166016,76.8398438 101.166016,75.5742188 L101.166016,75.5742188 L101.201172,74.9765625 C101.529297,71.4609375 104.236328,69.703125 109.322266,69.703125 L109.322266,69.703125 L113.119141,69.703125 L113.119141,76.2421875 C112.509766,77.3671875 111.572266,78.2636719 110.306641,78.9316406 C109.041016,79.5996094 107.658203,79.9335938 106.158203,79.9335938 Z M133.755859,99.8320312 C135.771484,98.0976562 137.423828,95.90625 138.712891,93.2578125 C140.001953,90.609375 140.658203,87.984375 140.681641,85.3828125 L140.681641,85.3828125 L140.716797,78.3515625 L132.138672,78.3515625 L132.138672,86.2265625 C132.091797,89.0625 131.283203,91.9101562 129.712891,94.7695312 L129.712891,94.7695312 L128.447266,97.0546875 L133.755859,99.8320312 Z M177.841797,87 L177.841797,65.0625 L198.408203,65.0625 L198.408203,87 L208.955078,87 L208.955078,35.8125 L198.408203,35.8125 L198.408203,56.5546875 L177.841797,56.5546875 L177.841797,35.8125 L167.294922,35.8125 L167.294922,87 L177.841797,87 Z M233.951172,87.703125 C239.435547,87.703125 243.806641,85.9394531 247.064453,82.4121094 C250.322266,78.8847656 251.951172,74.203125 251.951172,68.3671875 L251.951172,68.3671875 L251.880859,65.765625 C251.505859,60.375 249.695312,56.109375 246.449219,52.96875 C243.203125,49.828125 239.013672,48.2578125 233.880859,48.2578125 C230.271484,48.2578125 227.101562,49.0664062 224.371094,50.6835938 C221.640625,52.3007812 219.548828,54.5859375 218.095703,57.5390625 C216.642578,60.4921875 215.916016,63.8554688 215.916016,67.6289062 L215.916016,67.6289062 L215.916016,68.0859375 C215.916016,74.1328125 217.550781,78.9140625 220.820312,82.4296875 C224.089844,85.9453125 228.466797,87.703125 233.951172,87.703125 Z M233.951172,79.5117188 C231.419922,79.5117188 229.474609,78.5566406 228.115234,76.6464844 C226.755859,74.7363281 226.076172,71.9765625 226.076172,68.3671875 C226.076172,64.3125 226.755859,61.3183594 228.115234,59.3847656 C229.474609,57.4511719 231.396484,56.484375 233.880859,56.484375 C236.388672,56.484375 238.333984,57.4570312 239.716797,59.4023438 C241.099609,61.3476562 241.791016,64.0898438 241.791016,67.6289062 C241.791016,71.7773438 241.099609,74.7949219 239.716797,76.6816406 C238.333984,78.5683594 236.412109,79.5117188 233.951172,79.5117188 Z M268.931641,87 L268.931641,33 L258.736328,33 L258.736328,87 L268.931641,87 Z M288.724609,87.703125 C292.662109,87.703125 295.861328,86.3320312 298.322266,83.5898438 C298.533203,84.9492188 298.873047,86.0859375 299.341797,87 L299.341797,87 L309.607422,87 L309.607422,86.4023438 C308.623047,84.5507812 308.119141,81.8203125 308.095703,78.2109375 L308.095703,78.2109375 L308.095703,61.7226562 C308.095703,57.4570312 306.71875,54.1464844 303.964844,51.7910156 C301.210938,49.4355469 297.490234,48.2578125 292.802734,48.2578125 C289.708984,48.2578125 286.919922,48.7910156 284.435547,49.8574219 C281.951172,50.9238281 280.029297,52.3945312 278.669922,54.2695312 C277.310547,56.1445312 276.630859,58.1835938 276.630859,60.3867188 L276.630859,60.3867188 L286.791016,60.3867188 C286.791016,58.9570312 287.277344,57.8320312 288.25,57.0117188 C289.222656,56.1914062 290.564453,55.78125 292.275391,55.78125 C294.220703,55.78125 295.644531,56.3085938 296.546875,57.3632812 C297.449219,58.4179688 297.900391,59.8242188 297.900391,61.5820312 L297.900391,61.5820312 L297.900391,63.7617188 L293.224609,63.7617188 C287.576172,63.7851562 283.257812,64.875 280.269531,67.03125 C277.28125,69.1875 275.787109,72.28125 275.787109,76.3125 C275.787109,79.59375 277.011719,82.3125 279.460938,84.46875 C281.910156,86.625 284.998047,87.703125 288.724609,87.703125 Z M290.939453,79.9335938 C289.392578,79.9335938 288.173828,79.5234375 287.283203,78.703125 C286.392578,77.8828125 285.947266,76.8398438 285.947266,75.5742188 L285.947266,75.5742188 L285.982422,74.9765625 C286.310547,71.4609375 289.017578,69.703125 294.103516,69.703125 L294.103516,69.703125 L297.900391,69.703125 L297.900391,76.2421875 C297.291016,77.3671875 296.353516,78.2636719 295.087891,78.9316406 C293.822266,79.5996094 292.439453,79.9335938 290.939453,79.9335938 Z M318.537109,99.8320312 C320.552734,98.0976562 322.205078,95.90625 323.494141,93.2578125 C324.783203,90.609375 325.439453,87.984375 325.462891,85.3828125 L325.462891,85.3828125 L325.498047,78.3515625 L316.919922,78.3515625 L316.919922,86.2265625 C316.873047,89.0625 316.064453,91.9101562 314.494141,94.7695312 L314.494141,94.7695312 L313.228516,97.0546875 L318.537109,99.8320312 Z M362.623047,87 L362.623047,65.0625 L383.189453,65.0625 L383.189453,87 L393.736328,87 L393.736328,35.8125 L383.189453,35.8125 L383.189453,56.5546875 L362.623047,56.5546875 L362.623047,35.8125 L352.076172,35.8125 L352.076172,87 L362.623047,87 Z M419.787109,87.703125 C422.951172,87.703125 425.833984,87.0996094 428.435547,85.8925781 C431.037109,84.6855469 433.099609,83.0039062 434.623047,80.8476562 L434.623047,80.8476562 L429.630859,75.2578125 C427.427734,78.09375 424.369141,79.5117188 420.455078,79.5117188 C417.923828,79.5117188 415.832031,78.7617188 414.179688,77.2617188 C412.527344,75.7617188 411.537109,73.7695312 411.208984,71.2851562 L411.208984,71.2851562 L435.431641,71.2851562 L435.431641,67.1367188 C435.431641,61.1132812 433.9375,56.4609375 430.949219,53.1796875 C427.960938,49.8984375 423.865234,48.2578125 418.662109,48.2578125 C415.193359,48.2578125 412.105469,49.0722656 409.398438,50.7011719 C406.691406,52.3300781 404.599609,54.6503906 403.123047,57.6621094 C401.646484,60.6738281 400.908203,64.0898438 400.908203,67.9101562 L400.908203,67.9101562 L400.908203,68.8945312 C400.908203,74.5898438 402.660156,79.1484375 406.164062,82.5703125 C409.667969,85.9921875 414.208984,87.703125 419.787109,87.703125 Z M425.447266,64.359375 L411.314453,64.359375 C411.666016,61.828125 412.46875,59.8828125 413.722656,58.5234375 C414.976562,57.1640625 416.611328,56.484375 418.626953,56.484375 C420.783203,56.484375 422.447266,57.0996094 423.619141,58.3300781 C424.791016,59.5605469 425.400391,61.3007812 425.447266,63.5507812 L425.447266,63.5507812 L425.447266,64.359375 Z M451.919922,87 L451.919922,33 L441.724609,33 L441.724609,87 L451.919922,87 Z M471.009766,87 L471.009766,33 L460.814453,33 L460.814453,87 L471.009766,87 Z M495.830078,87.703125 C501.314453,87.703125 505.685547,85.9394531 508.943359,82.4121094 C512.201172,78.8847656 513.830078,74.203125 513.830078,68.3671875 L513.830078,68.3671875 L513.759766,65.765625 C513.384766,60.375 511.574219,56.109375 508.328125,52.96875 C505.082031,49.828125 500.892578,48.2578125 495.759766,48.2578125 C492.150391,48.2578125 488.980469,49.0664062 486.25,50.6835938 C483.519531,52.3007812 481.427734,54.5859375 479.974609,57.5390625 C478.521484,60.4921875 477.794922,63.8554688 477.794922,67.6289062 L477.794922,67.6289062 L477.794922,68.0859375 C477.794922,74.1328125 479.429688,78.9140625 482.699219,82.4296875 C485.96875,85.9453125 490.345703,87.703125 495.830078,87.703125 Z M495.830078,79.5117188 C493.298828,79.5117188 491.353516,78.5566406 489.994141,76.6464844 C488.634766,74.7363281 487.955078,71.9765625 487.955078,68.3671875 C487.955078,64.3125 488.634766,61.3183594 489.994141,59.3847656 C491.353516,57.4511719 493.275391,56.484375 495.759766,56.484375 C498.267578,56.484375 500.212891,57.4570312 501.595703,59.4023438 C502.978516,61.3476562 503.669922,64.0898438 503.669922,67.6289062 C503.669922,71.7773438 502.978516,74.7949219 501.595703,76.6816406 C500.212891,78.5683594 498.291016,79.5117188 495.830078,79.5117188 Z" id="intro-2" fill-opacity="0.3" fill="#E74C3C" fill-rule="nonzero">
            <animateMotion dur="0.25s" values="0,0; -5,-5" fill="freeze"></animateMotion>
        </path>
        <path d="M48.0097656,33 L57.7480469,22.1015625 L46.6738281,22.1015625 L39.7480469,33 L48.0097656,33 Z M44.7050781,87.703125 C48.9941406,87.703125 52.796875,86.671875 56.1132812,84.609375 C59.4296875,82.546875 61.9785156,79.6171875 63.7597656,75.8203125 C65.5410156,72.0234375 66.4316406,67.6054688 66.4316406,62.5664062 L66.4316406,62.5664062 L66.4316406,60.28125 C66.4316406,55.265625 65.5234375,50.8417969 63.7070312,47.0097656 C61.890625,43.1777344 59.3242188,40.2363281 56.0078125,38.1855469 C52.6914062,36.1347656 48.9003906,35.109375 44.6347656,35.109375 C40.3691406,35.109375 36.578125,36.1347656 33.2617188,38.1855469 C29.9453125,40.2363281 27.3789062,43.1777344 25.5625,47.0097656 C23.7460938,50.8417969 22.8378906,55.2773438 22.8378906,60.3164062 L22.8378906,60.3164062 L22.8378906,62.8476562 C22.8613281,67.7695312 23.7871094,72.1230469 25.6152344,75.9082031 C27.4433594,79.6933594 30.0214844,82.6054688 33.3496094,84.6445312 C36.6777344,86.6835938 40.4628906,87.703125 44.7050781,87.703125 Z M44.7050781,79.0546875 C41.0957031,79.0546875 38.3300781,77.6132812 36.4082031,74.7304688 C34.4863281,71.8476562 33.5253906,67.7929688 33.5253906,62.5664062 L33.5253906,62.5664062 L33.5253906,60.0703125 C33.5488281,54.75 34.5214844,50.7128906 36.4433594,47.9589844 C38.3652344,45.2050781 41.0957031,43.828125 44.6347656,43.828125 C48.1972656,43.828125 50.9394531,45.2226562 52.8613281,48.0117188 C54.7832031,50.8007812 55.7441406,54.8789062 55.7441406,60.2460938 L55.7441406,60.2460938 L55.7441406,62.7421875 C55.7207031,68.0625 54.7597656,72.1113281 52.8613281,74.8886719 C50.9628906,77.6660156 48.2441406,79.0546875 44.7050781,79.0546875 Z M84.1503906,87 L84.1503906,33 L73.9550781,33 L73.9550781,87 L84.1503906,87 Z M103.943359,87.703125 C107.880859,87.703125 111.080078,86.3320312 113.541016,83.5898438 C113.751953,84.9492188 114.091797,86.0859375 114.560547,87 L114.560547,87 L124.826172,87 L124.826172,86.4023438 C123.841797,84.5507812 123.337891,81.8203125 123.314453,78.2109375 L123.314453,78.2109375 L123.314453,61.7226562 C123.314453,57.4570312 121.9375,54.1464844 119.183594,51.7910156 C116.429688,49.4355469 112.708984,48.2578125 108.021484,48.2578125 C104.927734,48.2578125 102.138672,48.7910156 99.6542969,49.8574219 C97.1699219,50.9238281 95.2480469,52.3945312 93.8886719,54.2695312 C92.5292969,56.1445312 91.8496094,58.1835938 91.8496094,60.3867188 L91.8496094,60.3867188 L102.009766,60.3867188 C102.009766,58.9570312 102.496094,57.8320312 103.46875,57.0117188 C104.441406,56.1914062 105.783203,55.78125 107.494141,55.78125 C109.439453,55.78125 110.863281,56.3085938 111.765625,57.3632812 C112.667969,58.4179688 113.119141,59.8242188 113.119141,61.5820312 L113.119141,61.5820312 L113.119141,63.7617188 L108.443359,63.7617188 C102.794922,63.7851562 98.4765625,64.875 95.4882812,67.03125 C92.5,69.1875 91.0058594,72.28125 91.0058594,76.3125 C91.0058594,79.59375 92.2304688,82.3125 94.6796875,84.46875 C97.1289062,86.625 100.216797,87.703125 103.943359,87.703125 Z M106.158203,79.9335938 C104.611328,79.9335938 103.392578,79.5234375 102.501953,78.703125 C101.611328,77.8828125 101.166016,76.8398438 101.166016,75.5742188 L101.166016,75.5742188 L101.201172,74.9765625 C101.529297,71.4609375 104.236328,69.703125 109.322266,69.703125 L109.322266,69.703125 L113.119141,69.703125 L113.119141,76.2421875 C112.509766,77.3671875 111.572266,78.2636719 110.306641,78.9316406 C109.041016,79.5996094 107.658203,79.9335938 106.158203,79.9335938 Z M133.755859,99.8320312 C135.771484,98.0976562 137.423828,95.90625 138.712891,93.2578125 C140.001953,90.609375 140.658203,87.984375 140.681641,85.3828125 L140.681641,85.3828125 L140.716797,78.3515625 L132.138672,78.3515625 L132.138672,86.2265625 C132.091797,89.0625 131.283203,91.9101562 129.712891,94.7695312 L129.712891,94.7695312 L128.447266,97.0546875 L133.755859,99.8320312 Z M177.841797,87 L177.841797,65.0625 L198.408203,65.0625 L198.408203,87 L208.955078,87 L208.955078,35.8125 L198.408203,35.8125 L198.408203,56.5546875 L177.841797,56.5546875 L177.841797,35.8125 L167.294922,35.8125 L167.294922,87 L177.841797,87 Z M233.951172,87.703125 C239.435547,87.703125 243.806641,85.9394531 247.064453,82.4121094 C250.322266,78.8847656 251.951172,74.203125 251.951172,68.3671875 L251.951172,68.3671875 L251.880859,65.765625 C251.505859,60.375 249.695312,56.109375 246.449219,52.96875 C243.203125,49.828125 239.013672,48.2578125 233.880859,48.2578125 C230.271484,48.2578125 227.101562,49.0664062 224.371094,50.6835938 C221.640625,52.3007812 219.548828,54.5859375 218.095703,57.5390625 C216.642578,60.4921875 215.916016,63.8554688 215.916016,67.6289062 L215.916016,67.6289062 L215.916016,68.0859375 C215.916016,74.1328125 217.550781,78.9140625 220.820312,82.4296875 C224.089844,85.9453125 228.466797,87.703125 233.951172,87.703125 Z M233.951172,79.5117188 C231.419922,79.5117188 229.474609,78.5566406 228.115234,76.6464844 C226.755859,74.7363281 226.076172,71.9765625 226.076172,68.3671875 C226.076172,64.3125 226.755859,61.3183594 228.115234,59.3847656 C229.474609,57.4511719 231.396484,56.484375 233.880859,56.484375 C236.388672,56.484375 238.333984,57.4570312 239.716797,59.4023438 C241.099609,61.3476562 241.791016,64.0898438 241.791016,67.6289062 C241.791016,71.7773438 241.099609,74.7949219 239.716797,76.6816406 C238.333984,78.5683594 236.412109,79.5117188 233.951172,79.5117188 Z M268.931641,87 L268.931641,33 L258.736328,33 L258.736328,87 L268.931641,87 Z M288.724609,87.703125 C292.662109,87.703125 295.861328,86.3320312 298.322266,83.5898438 C298.533203,84.9492188 298.873047,86.0859375 299.341797,87 L299.341797,87 L309.607422,87 L309.607422,86.4023438 C308.623047,84.5507812 308.119141,81.8203125 308.095703,78.2109375 L308.095703,78.2109375 L308.095703,61.7226562 C308.095703,57.4570312 306.71875,54.1464844 303.964844,51.7910156 C301.210938,49.4355469 297.490234,48.2578125 292.802734,48.2578125 C289.708984,48.2578125 286.919922,48.7910156 284.435547,49.8574219 C281.951172,50.9238281 280.029297,52.3945312 278.669922,54.2695312 C277.310547,56.1445312 276.630859,58.1835938 276.630859,60.3867188 L276.630859,60.3867188 L286.791016,60.3867188 C286.791016,58.9570312 287.277344,57.8320312 288.25,57.0117188 C289.222656,56.1914062 290.564453,55.78125 292.275391,55.78125 C294.220703,55.78125 295.644531,56.3085938 296.546875,57.3632812 C297.449219,58.4179688 297.900391,59.8242188 297.900391,61.5820312 L297.900391,61.5820312 L297.900391,63.7617188 L293.224609,63.7617188 C287.576172,63.7851562 283.257812,64.875 280.269531,67.03125 C277.28125,69.1875 275.787109,72.28125 275.787109,76.3125 C275.787109,79.59375 277.011719,82.3125 279.460938,84.46875 C281.910156,86.625 284.998047,87.703125 288.724609,87.703125 Z M290.939453,79.9335938 C289.392578,79.9335938 288.173828,79.5234375 287.283203,78.703125 C286.392578,77.8828125 285.947266,76.8398438 285.947266,75.5742188 L285.947266,75.5742188 L285.982422,74.9765625 C286.310547,71.4609375 289.017578,69.703125 294.103516,69.703125 L294.103516,69.703125 L297.900391,69.703125 L297.900391,76.2421875 C297.291016,77.3671875 296.353516,78.2636719 295.087891,78.9316406 C293.822266,79.5996094 292.439453,79.9335938 290.939453,79.9335938 Z M318.537109,99.8320312 C320.552734,98.0976562 322.205078,95.90625 323.494141,93.2578125 C324.783203,90.609375 325.439453,87.984375 325.462891,85.3828125 L325.462891,85.3828125 L325.498047,78.3515625 L316.919922,78.3515625 L316.919922,86.2265625 C316.873047,89.0625 316.064453,91.9101562 314.494141,94.7695312 L314.494141,94.7695312 L313.228516,97.0546875 L318.537109,99.8320312 Z M362.623047,87 L362.623047,65.0625 L383.189453,65.0625 L383.189453,87 L393.736328,87 L393.736328,35.8125 L383.189453,35.8125 L383.189453,56.5546875 L362.623047,56.5546875 L362.623047,35.8125 L352.076172,35.8125 L352.076172,87 L362.623047,87 Z M419.787109,87.703125 C422.951172,87.703125 425.833984,87.0996094 428.435547,85.8925781 C431.037109,84.6855469 433.099609,83.0039062 434.623047,80.8476562 L434.623047,80.8476562 L429.630859,75.2578125 C427.427734,78.09375 424.369141,79.5117188 420.455078,79.5117188 C417.923828,79.5117188 415.832031,78.7617188 414.179688,77.2617188 C412.527344,75.7617188 411.537109,73.7695312 411.208984,71.2851562 L411.208984,71.2851562 L435.431641,71.2851562 L435.431641,67.1367188 C435.431641,61.1132812 433.9375,56.4609375 430.949219,53.1796875 C427.960938,49.8984375 423.865234,48.2578125 418.662109,48.2578125 C415.193359,48.2578125 412.105469,49.0722656 409.398438,50.7011719 C406.691406,52.3300781 404.599609,54.6503906 403.123047,57.6621094 C401.646484,60.6738281 400.908203,64.0898438 400.908203,67.9101562 L400.908203,67.9101562 L400.908203,68.8945312 C400.908203,74.5898438 402.660156,79.1484375 406.164062,82.5703125 C409.667969,85.9921875 414.208984,87.703125 419.787109,87.703125 Z M425.447266,64.359375 L411.314453,64.359375 C411.666016,61.828125 412.46875,59.8828125 413.722656,58.5234375 C414.976562,57.1640625 416.611328,56.484375 418.626953,56.484375 C420.783203,56.484375 422.447266,57.0996094 423.619141,58.3300781 C424.791016,59.5605469 425.400391,61.3007812 425.447266,63.5507812 L425.447266,63.5507812 L425.447266,64.359375 Z M451.919922,87 L451.919922,33 L441.724609,33 L441.724609,87 L451.919922,87 Z M471.009766,87 L471.009766,33 L460.814453,33 L460.814453,87 L471.009766,87 Z M495.830078,87.703125 C501.314453,87.703125 505.685547,85.9394531 508.943359,82.4121094 C512.201172,78.8847656 513.830078,74.203125 513.830078,68.3671875 L513.830078,68.3671875 L513.759766,65.765625 C513.384766,60.375 511.574219,56.109375 508.328125,52.96875 C505.082031,49.828125 500.892578,48.2578125 495.759766,48.2578125 C492.150391,48.2578125 488.980469,49.0664062 486.25,50.6835938 C483.519531,52.3007812 481.427734,54.5859375 479.974609,57.5390625 C478.521484,60.4921875 477.794922,63.8554688 477.794922,67.6289062 L477.794922,67.6289062 L477.794922,68.0859375 C477.794922,74.1328125 479.429688,78.9140625 482.699219,82.4296875 C485.96875,85.9453125 490.345703,87.703125 495.830078,87.703125 Z M495.830078,79.5117188 C493.298828,79.5117188 491.353516,78.5566406 489.994141,76.6464844 C488.634766,74.7363281 487.955078,71.9765625 487.955078,68.3671875 C487.955078,64.3125 488.634766,61.3183594 489.994141,59.3847656 C491.353516,57.4511719 493.275391,56.484375 495.759766,56.484375 C498.267578,56.484375 500.212891,57.4570312 501.595703,59.4023438 C502.978516,61.3476562 503.669922,64.0898438 503.669922,67.6289062 C503.669922,71.7773438 502.978516,74.7949219 501.595703,76.6816406 C500.212891,78.5683594 498.291016,79.5117188 495.830078,79.5117188 Z" id="intro-1" fill-opacity="0.3" fill="#3498DB" fill-rule="nonzero">
            <animateMotion dur="0.25s" values="0,0; 5,5" fill="freeze"></animateMotion>
        </path>
        <path d="M48.0097656,33 L57.7480469,22.1015625 L46.6738281,22.1015625 L39.7480469,33 L48.0097656,33 Z M44.7050781,87.703125 C48.9941406,87.703125 52.796875,86.671875 56.1132812,84.609375 C59.4296875,82.546875 61.9785156,79.6171875 63.7597656,75.8203125 C65.5410156,72.0234375 66.4316406,67.6054688 66.4316406,62.5664062 L66.4316406,62.5664062 L66.4316406,60.28125 C66.4316406,55.265625 65.5234375,50.8417969 63.7070312,47.0097656 C61.890625,43.1777344 59.3242188,40.2363281 56.0078125,38.1855469 C52.6914062,36.1347656 48.9003906,35.109375 44.6347656,35.109375 C40.3691406,35.109375 36.578125,36.1347656 33.2617188,38.1855469 C29.9453125,40.2363281 27.3789062,43.1777344 25.5625,47.0097656 C23.7460938,50.8417969 22.8378906,55.2773438 22.8378906,60.3164062 L22.8378906,60.3164062 L22.8378906,62.8476562 C22.8613281,67.7695312 23.7871094,72.1230469 25.6152344,75.9082031 C27.4433594,79.6933594 30.0214844,82.6054688 33.3496094,84.6445312 C36.6777344,86.6835938 40.4628906,87.703125 44.7050781,87.703125 Z M44.7050781,79.0546875 C41.0957031,79.0546875 38.3300781,77.6132812 36.4082031,74.7304688 C34.4863281,71.8476562 33.5253906,67.7929688 33.5253906,62.5664062 L33.5253906,62.5664062 L33.5253906,60.0703125 C33.5488281,54.75 34.5214844,50.7128906 36.4433594,47.9589844 C38.3652344,45.2050781 41.0957031,43.828125 44.6347656,43.828125 C48.1972656,43.828125 50.9394531,45.2226562 52.8613281,48.0117188 C54.7832031,50.8007812 55.7441406,54.8789062 55.7441406,60.2460938 L55.7441406,60.2460938 L55.7441406,62.7421875 C55.7207031,68.0625 54.7597656,72.1113281 52.8613281,74.8886719 C50.9628906,77.6660156 48.2441406,79.0546875 44.7050781,79.0546875 Z M84.1503906,87 L84.1503906,33 L73.9550781,33 L73.9550781,87 L84.1503906,87 Z M103.943359,87.703125 C107.880859,87.703125 111.080078,86.3320312 113.541016,83.5898438 C113.751953,84.9492188 114.091797,86.0859375 114.560547,87 L114.560547,87 L124.826172,87 L124.826172,86.4023438 C123.841797,84.5507812 123.337891,81.8203125 123.314453,78.2109375 L123.314453,78.2109375 L123.314453,61.7226562 C123.314453,57.4570312 121.9375,54.1464844 119.183594,51.7910156 C116.429688,49.4355469 112.708984,48.2578125 108.021484,48.2578125 C104.927734,48.2578125 102.138672,48.7910156 99.6542969,49.8574219 C97.1699219,50.9238281 95.2480469,52.3945312 93.8886719,54.2695312 C92.5292969,56.1445312 91.8496094,58.1835938 91.8496094,60.3867188 L91.8496094,60.3867188 L102.009766,60.3867188 C102.009766,58.9570312 102.496094,57.8320312 103.46875,57.0117188 C104.441406,56.1914062 105.783203,55.78125 107.494141,55.78125 C109.439453,55.78125 110.863281,56.3085938 111.765625,57.3632812 C112.667969,58.4179688 113.119141,59.8242188 113.119141,61.5820312 L113.119141,61.5820312 L113.119141,63.7617188 L108.443359,63.7617188 C102.794922,63.7851562 98.4765625,64.875 95.4882812,67.03125 C92.5,69.1875 91.0058594,72.28125 91.0058594,76.3125 C91.0058594,79.59375 92.2304688,82.3125 94.6796875,84.46875 C97.1289062,86.625 100.216797,87.703125 103.943359,87.703125 Z M106.158203,79.9335938 C104.611328,79.9335938 103.392578,79.5234375 102.501953,78.703125 C101.611328,77.8828125 101.166016,76.8398438 101.166016,75.5742188 L101.166016,75.5742188 L101.201172,74.9765625 C101.529297,71.4609375 104.236328,69.703125 109.322266,69.703125 L109.322266,69.703125 L113.119141,69.703125 L113.119141,76.2421875 C112.509766,77.3671875 111.572266,78.2636719 110.306641,78.9316406 C109.041016,79.5996094 107.658203,79.9335938 106.158203,79.9335938 Z M133.755859,99.8320312 C135.771484,98.0976562 137.423828,95.90625 138.712891,93.2578125 C140.001953,90.609375 140.658203,87.984375 140.681641,85.3828125 L140.681641,85.3828125 L140.716797,78.3515625 L132.138672,78.3515625 L132.138672,86.2265625 C132.091797,89.0625 131.283203,91.9101562 129.712891,94.7695312 L129.712891,94.7695312 L128.447266,97.0546875 L133.755859,99.8320312 Z M177.841797,87 L177.841797,65.0625 L198.408203,65.0625 L198.408203,87 L208.955078,87 L208.955078,35.8125 L198.408203,35.8125 L198.408203,56.5546875 L177.841797,56.5546875 L177.841797,35.8125 L167.294922,35.8125 L167.294922,87 L177.841797,87 Z M233.951172,87.703125 C239.435547,87.703125 243.806641,85.9394531 247.064453,82.4121094 C250.322266,78.8847656 251.951172,74.203125 251.951172,68.3671875 L251.951172,68.3671875 L251.880859,65.765625 C251.505859,60.375 249.695312,56.109375 246.449219,52.96875 C243.203125,49.828125 239.013672,48.2578125 233.880859,48.2578125 C230.271484,48.2578125 227.101562,49.0664062 224.371094,50.6835938 C221.640625,52.3007812 219.548828,54.5859375 218.095703,57.5390625 C216.642578,60.4921875 215.916016,63.8554688 215.916016,67.6289062 L215.916016,67.6289062 L215.916016,68.0859375 C215.916016,74.1328125 217.550781,78.9140625 220.820312,82.4296875 C224.089844,85.9453125 228.466797,87.703125 233.951172,87.703125 Z M233.951172,79.5117188 C231.419922,79.5117188 229.474609,78.5566406 228.115234,76.6464844 C226.755859,74.7363281 226.076172,71.9765625 226.076172,68.3671875 C226.076172,64.3125 226.755859,61.3183594 228.115234,59.3847656 C229.474609,57.4511719 231.396484,56.484375 233.880859,56.484375 C236.388672,56.484375 238.333984,57.4570312 239.716797,59.4023438 C241.099609,61.3476562 241.791016,64.0898438 241.791016,67.6289062 C241.791016,71.7773438 241.099609,74.7949219 239.716797,76.6816406 C238.333984,78.5683594 236.412109,79.5117188 233.951172,79.5117188 Z M268.931641,87 L268.931641,33 L258.736328,33 L258.736328,87 L268.931641,87 Z M288.724609,87.703125 C292.662109,87.703125 295.861328,86.3320312 298.322266,83.5898438 C298.533203,84.9492188 298.873047,86.0859375 299.341797,87 L299.341797,87 L309.607422,87 L309.607422,86.4023438 C308.623047,84.5507812 308.119141,81.8203125 308.095703,78.2109375 L308.095703,78.2109375 L308.095703,61.7226562 C308.095703,57.4570312 306.71875,54.1464844 303.964844,51.7910156 C301.210938,49.4355469 297.490234,48.2578125 292.802734,48.2578125 C289.708984,48.2578125 286.919922,48.7910156 284.435547,49.8574219 C281.951172,50.9238281 280.029297,52.3945312 278.669922,54.2695312 C277.310547,56.1445312 276.630859,58.1835938 276.630859,60.3867188 L276.630859,60.3867188 L286.791016,60.3867188 C286.791016,58.9570312 287.277344,57.8320312 288.25,57.0117188 C289.222656,56.1914062 290.564453,55.78125 292.275391,55.78125 C294.220703,55.78125 295.644531,56.3085938 296.546875,57.3632812 C297.449219,58.4179688 297.900391,59.8242188 297.900391,61.5820312 L297.900391,61.5820312 L297.900391,63.7617188 L293.224609,63.7617188 C287.576172,63.7851562 283.257812,64.875 280.269531,67.03125 C277.28125,69.1875 275.787109,72.28125 275.787109,76.3125 C275.787109,79.59375 277.011719,82.3125 279.460938,84.46875 C281.910156,86.625 284.998047,87.703125 288.724609,87.703125 Z M290.939453,79.9335938 C289.392578,79.9335938 288.173828,79.5234375 287.283203,78.703125 C286.392578,77.8828125 285.947266,76.8398438 285.947266,75.5742188 L285.947266,75.5742188 L285.982422,74.9765625 C286.310547,71.4609375 289.017578,69.703125 294.103516,69.703125 L294.103516,69.703125 L297.900391,69.703125 L297.900391,76.2421875 C297.291016,77.3671875 296.353516,78.2636719 295.087891,78.9316406 C293.822266,79.5996094 292.439453,79.9335938 290.939453,79.9335938 Z M318.537109,99.8320312 C320.552734,98.0976562 322.205078,95.90625 323.494141,93.2578125 C324.783203,90.609375 325.439453,87.984375 325.462891,85.3828125 L325.462891,85.3828125 L325.498047,78.3515625 L316.919922,78.3515625 L316.919922,86.2265625 C316.873047,89.0625 316.064453,91.9101562 314.494141,94.7695312 L314.494141,94.7695312 L313.228516,97.0546875 L318.537109,99.8320312 Z M362.623047,87 L362.623047,65.0625 L383.189453,65.0625 L383.189453,87 L393.736328,87 L393.736328,35.8125 L383.189453,35.8125 L383.189453,56.5546875 L362.623047,56.5546875 L362.623047,35.8125 L352.076172,35.8125 L352.076172,87 L362.623047,87 Z M419.787109,87.703125 C422.951172,87.703125 425.833984,87.0996094 428.435547,85.8925781 C431.037109,84.6855469 433.099609,83.0039062 434.623047,80.8476562 L434.623047,80.8476562 L429.630859,75.2578125 C427.427734,78.09375 424.369141,79.5117188 420.455078,79.5117188 C417.923828,79.5117188 415.832031,78.7617188 414.179688,77.2617188 C412.527344,75.7617188 411.537109,73.7695312 411.208984,71.2851562 L411.208984,71.2851562 L435.431641,71.2851562 L435.431641,67.1367188 C435.431641,61.1132812 433.9375,56.4609375 430.949219,53.1796875 C427.960938,49.8984375 423.865234,48.2578125 418.662109,48.2578125 C415.193359,48.2578125 412.105469,49.0722656 409.398438,50.7011719 C406.691406,52.3300781 404.599609,54.6503906 403.123047,57.6621094 C401.646484,60.6738281 400.908203,64.0898438 400.908203,67.9101562 L400.908203,67.9101562 L400.908203,68.8945312 C400.908203,74.5898438 402.660156,79.1484375 406.164062,82.5703125 C409.667969,85.9921875 414.208984,87.703125 419.787109,87.703125 Z M425.447266,64.359375 L411.314453,64.359375 C411.666016,61.828125 412.46875,59.8828125 413.722656,58.5234375 C414.976562,57.1640625 416.611328,56.484375 418.626953,56.484375 C420.783203,56.484375 422.447266,57.0996094 423.619141,58.3300781 C424.791016,59.5605469 425.400391,61.3007812 425.447266,63.5507812 L425.447266,63.5507812 L425.447266,64.359375 Z M451.919922,87 L451.919922,33 L441.724609,33 L441.724609,87 L451.919922,87 Z M471.009766,87 L471.009766,33 L460.814453,33 L460.814453,87 L471.009766,87 Z M495.830078,87.703125 C501.314453,87.703125 505.685547,85.9394531 508.943359,82.4121094 C512.201172,78.8847656 513.830078,74.203125 513.830078,68.3671875 L513.830078,68.3671875 L513.759766,65.765625 C513.384766,60.375 511.574219,56.109375 508.328125,52.96875 C505.082031,49.828125 500.892578,48.2578125 495.759766,48.2578125 C492.150391,48.2578125 488.980469,49.0664062 486.25,50.6835938 C483.519531,52.3007812 481.427734,54.5859375 479.974609,57.5390625 C478.521484,60.4921875 477.794922,63.8554688 477.794922,67.6289062 L477.794922,67.6289062 L477.794922,68.0859375 C477.794922,74.1328125 479.429688,78.9140625 482.699219,82.4296875 C485.96875,85.9453125 490.345703,87.703125 495.830078,87.703125 Z M495.830078,79.5117188 C493.298828,79.5117188 491.353516,78.5566406 489.994141,76.6464844 C488.634766,74.7363281 487.955078,71.9765625 487.955078,68.3671875 C487.955078,64.3125 488.634766,61.3183594 489.994141,59.3847656 C491.353516,57.4511719 493.275391,56.484375 495.759766,56.484375 C498.267578,56.484375 500.212891,57.4570312 501.595703,59.4023438 C502.978516,61.3476562 503.669922,64.0898438 503.669922,67.6289062 C503.669922,71.7773438 502.978516,74.7949219 501.595703,76.6816406 C500.212891,78.5683594 498.291016,79.5117188 495.830078,79.5117188 Z" id="intro-top" fill="#000000" fill-rule="nonzero"></path>
    </g>
</svg>